{"accessors" : [{"bufferView" : 0, "byteOffset" : 0, "componentType" : 5123, "count" : 468, "type" : "SCALAR", "max" : [389], "min" : [0]}, {"bufferView" : 1, "byteOffset" : 0, "componentType" : 5126, "count" : 390, "type" : "VEC3", "max" : [1, 3.296842575073242, 1], "min" : [-1, -1, -1.2941248416900635], "name" : "POSITION"}, {"bufferView" : 1, "byteOffset" : 12, "componentType" : 5126, "count" : 390, "type" : "VEC3", "max" : [1.0000044107437134, 1.0000044107437134, 1.0000044107437134], "min" : [-1.0000044107437134, -1.0000044107437134, -1.0000044107437134], "name" : "NORMAL"}, {"bufferView" : 1, "byteOffset" : 24, "componentType" : 5126, "count" : 390, "type" : "VEC2", "max" : [0.875, 1], "min" : [0.125, 0], "name" : "TEXCOORD_0"}, {"bufferView" : 0, "byteOffset" : 936, "componentType" : 5123, "count" : 1128, "type" : "SCALAR", "max" : [923], "min" : [0]}, {"bufferView" : 2, "byteOffset" : 0, "componentType" : 5126, "count" : 924, "type" : "VEC3", "max" : [0.9749279022216797, 1.0043604373931885, 1], "min" : [-0.9749279022216797, -1, -1], "name" : "POSITION"}, {"bufferView" : 2, "byteOffset" : 12, "componentType" : 5126, "count" : 924, "type" : "VEC3", "max" : [1.0000044107437134, 1.0000044107437134, 0.9749322533607483], "min" : [-1.0000044107437134, -1.0000044107437134, -0.9749323725700378], "name" : "NORMAL"}, {"bufferView" : 2, "byteOffset" : 24, "componentType" : 5126, "count" : 924, "type" : "VEC2", "max" : [1, 1], "min" : [-1.341104507446289E-07, 0], "name" : "TEXCOORD_0"}, {"bufferView" : 0, "byteOffset" : 3192, "componentType" : 5123, "count" : 1128, "type" : "SCALAR", "max" : [923], "min" : [0]}, {"bufferView" : 3, "byteOffset" : 0, "componentType" : 5126, "count" : 924, "type" : "VEC3", "max" : [0.9749279022216797, 1.0043604373931885, 1], "min" : [-0.9749279022216797, -1, -1], "name" : "POSITION"}, {"bufferView" : 3, "byteOffset" : 12, "componentType" : 5126, "count" : 924, "type" : "VEC3", "max" : [1.0000044107437134, 1.0000044107437134, 0.9749322533607483], "min" : [-1.0000044107437134, -1.0000044107437134, -0.9749323725700378], "name" : "NORMAL"}, {"bufferView" : 3, "byteOffset" : 24, "componentType" : 5126, "count" : 924, "type" : "VEC2", "max" : [1, 1], "min" : [-1.341104507446289E-07, 0], "name" : "TEXCOORD_0"}, {"bufferView" : 0, "byteOffset" : 5448, "componentType" : 5123, "count" : 1128, "type" : "SCALAR", "max" : [923], "min" : [0]}, {"bufferView" : 4, "byteOffset" : 0, "componentType" : 5126, "count" : 924, "type" : "VEC3", "max" : [0.9749279022216797, 1.0043604373931885, 1], "min" : [-0.9749279022216797, -1, -1], "name" : "POSITION"}, {"bufferView" : 4, "byteOffset" : 12, "componentType" : 5126, "count" : 924, "type" : "VEC3", "max" : [1.0000044107437134, 1.0000044107437134, 0.9749322533607483], "min" : [-1.0000044107437134, -1.0000044107437134, -0.9749323725700378], "name" : "NORMAL"}, {"bufferView" : 4, "byteOffset" : 24, "componentType" : 5126, "count" : 924, "type" : "VEC2", "max" : [1, 1], "min" : [-1.341104507446289E-07, 0], "name" : "TEXCOORD_0"}, {"bufferView" : 0, "byteOffset" : 7704, "componentType" : 5123, "count" : 1128, "type" : "SCALAR", "max" : [923], "min" : [0]}, {"bufferView" : 5, "byteOffset" : 0, "componentType" : 5126, "count" : 924, "type" : "VEC3", "max" : [0.9749279022216797, 1.0043604373931885, 1], "min" : [-0.9749279022216797, -1, -1], "name" : "POSITION"}, {"bufferView" : 5, "byteOffset" : 12, "componentType" : 5126, "count" : 924, "type" : "VEC3", "max" : [1.0000044107437134, 1.0000044107437134, 0.9749322533607483], "min" : [-1.0000044107437134, -1.0000044107437134, -0.9749323725700378], "name" : "NORMAL"}, {"bufferView" : 5, "byteOffset" : 24, "componentType" : 5126, "count" : 924, "type" : "VEC2", "max" : [1, 1], "min" : [-1.341104507446289E-07, 0], "name" : "TEXCOORD_0"}, {"bufferView" : 0, "byteOffset" : 9960, "componentType" : 5123, "count" : 36, "type" : "SCALAR", "max" : [29], "min" : [0]}, {"bufferView" : 6, "byteOffset" : 0, "componentType" : 5126, "count" : 30, "type" : "VEC3", "max" : [1, 1, 1], "min" : [-1, -1, -1], "name" : "POSITION"}, {"bufferView" : 6, "byteOffset" : 12, "componentType" : 5126, "count" : 30, "type" : "VEC3", "max" : [1.0000044107437134, 1.0000044107437134, 1.0000044107437134], "min" : [-1.0000044107437134, -1.0000044107437134, -1.0000044107437134], "name" : "NORMAL"}, {"bufferView" : 6, "byteOffset" : 24, "componentType" : 5126, "count" : 30, "type" : "VEC2", "max" : [0.875, 1], "min" : [0.125, 0], "name" : "TEXCOORD_0"}, {"bufferView" : 0, "byteOffset" : 10032, "componentType" : 5123, "count" : 36, "type" : "SCALAR", "max" : [29], "min" : [0]}, {"bufferView" : 7, "byteOffset" : 0, "componentType" : 5126, "count" : 30, "type" : "VEC3", "max" : [1, 1, 1], "min" : [-1, -1, -1], "name" : "POSITION"}, {"bufferView" : 7, "byteOffset" : 12, "componentType" : 5126, "count" : 30, "type" : "VEC3", "max" : [1.0000044107437134, 1.0000044107437134, 1.0000044107437134], "min" : [-1.0000044107437134, -1.0000044107437134, -1.0000044107437134], "name" : "NORMAL"}, {"bufferView" : 7, "byteOffset" : 24, "componentType" : 5126, "count" : 30, "type" : "VEC2", "max" : [0.875, 1], "min" : [0.125, 0], "name" : "TEXCOORD_0"}, {"bufferView" : 0, "byteOffset" : 10104, "componentType" : 5123, "count" : 36, "type" : "SCALAR", "max" : [29], "min" : [0]}, {"bufferView" : 8, "byteOffset" : 0, "componentType" : 5126, "count" : 30, "type" : "VEC3", "max" : [1, 1, 1], "min" : [-1, -1, -1], "name" : "POSITION"}, {"bufferView" : 8, "byteOffset" : 12, "componentType" : 5126, "count" : 30, "type" : "VEC3", "max" : [1.0000044107437134, 1.0000044107437134, 1.0000044107437134], "min" : [-1.0000044107437134, -1.0000044107437134, -1.0000044107437134], "name" : "NORMAL"}, {"bufferView" : 8, "byteOffset" : 24, "componentType" : 5126, "count" : 30, "type" : "VEC2", "max" : [0.875, 1], "min" : [0.125, 0], "name" : "TEXCOORD_0"}, {"bufferView" : 0, "byteOffset" : 10176, "componentType" : 5123, "count" : 36, "type" : "SCALAR", "max" : [29], "min" : [0]}, {"bufferView" : 9, "byteOffset" : 0, "componentType" : 5126, "count" : 30, "type" : "VEC3", "max" : [1, 1, 1], "min" : [-1, -1, -1], "name" : "POSITION"}, {"bufferView" : 9, "byteOffset" : 12, "componentType" : 5126, "count" : 30, "type" : "VEC3", "max" : [1.0000044107437134, 1.0000044107437134, 1.0000044107437134], "min" : [-1.0000044107437134, -1.0000044107437134, -1.0000044107437134], "name" : "NORMAL"}, {"bufferView" : 9, "byteOffset" : 24, "componentType" : 5126, "count" : 30, "type" : "VEC2", "max" : [0.875, 1], "min" : [0.125, 0], "name" : "TEXCOORD_0"}], "asset" : {"generator" : "Aspose.3D 22.7", "version" : "2.0"}, "buffers" : [{"uri" : "data:application/octet-stream;base64,", "byteLength" : 174256}], "bufferViews" : [{"buffer" : 0, "byteOffset" : 0, "byteLength" : 10248, "target" : 34963}, {"buffer" : 0, "byteOffset" : 10252, "byteLength" : 14976, "byteStride" : 32, "target" : 34962}, {"buffer" : 0, "byteOffset" : 25232, "byteLength" : 36096, "byteStride" : 32, "target" : 34962}, {"buffer" : 0, "byteOffset" : 61332, "byteLength" : 36096, "byteStride" : 32, "target" : 34962}, {"buffer" : 0, "byteOffset" : 97432, "byteLength" : 36096, "byteStride" : 32, "target" : 34962}, {"buffer" : 0, "byteOffset" : 133532, "byteLength" : 36096, "byteStride" : 32, "target" : 34962}, {"buffer" : 0, "byteOffset" : 169632, "byteLength" : 1152, "byteStride" : 32, "target" : 34962}, {"buffer" : 0, "byteOffset" : 170788, "byteLength" : 1152, "byteStride" : 32, "target" : 34962}, {"buffer" : 0, "byteOffset" : 171944, "byteLength" : 1152, "byteStride" : 32, "target" : 34962}, {"buffer" : 0, "byteOffset" : 173100, "byteLength" : 1152, "byteStride" : 32, "target" : 34962}], "materials" : [{"name" : "Car", "pbrMetallicRoughness" : {"baseColorFactor" : [0.1265227049589157, 0, 0.8000000715255737, 1], "metallicFactor" : 0, "roughnessFactor" : 0.4000000059604645}, "emissiveFactor" : [0, 0, 0], "alphaMode" : "OPAQUE", "doubleSided" : true}, {"name" : "wheel", "pbrMetallicRoughness" : {"baseColorFactor" : [0, 0, 0, 1], "metallicFactor" : 0, "roughnessFactor" : 0.5}, "emissiveFactor" : [0, 0, 0], "alphaMode" : "OPAQUE", "doubleSided" : true}, {"name" : "wheel", "pbrMetallicRoughness" : {"baseColorFactor" : [0, 0, 0, 1], "metallicFactor" : 0, "roughnessFactor" : 0.5}, "emissiveFactor" : [0, 0, 0], "alphaMode" : "OPAQUE", "doubleSided" : true}, {"name" : "wheel", "pbrMetallicRoughness" : {"baseColorFactor" : [0, 0, 0, 1], "metallicFactor" : 0, "roughnessFactor" : 0.5}, "emissiveFactor" : [0, 0, 0], "alphaMode" : "OPAQUE", "doubleSided" : true}, {"name" : "wheel", "pbrMetallicRoughness" : {"baseColorFactor" : [0, 0, 0, 1], "metallicFactor" : 0, "roughnessFactor" : 0.5}, "emissiveFactor" : [0, 0, 0], "alphaMode" : "OPAQUE", "doubleSided" : true}], "meshes" : [{"primitives" : [{"attributes" : {"POSITION" : 1, "NORMAL" : 2, "TEXCOORD_0" : 3}, "indices" : 0, "material" : 0, "mode" : 4}]}, {"primitives" : [{"attributes" : {"POSITION" : 5, "NORMAL" : 6, "TEXCOORD_0" : 7}, "indices" : 4, "material" : 1, "mode" : 4}]}, {"primitives" : [{"attributes" : {"POSITION" : 9, "NORMAL" : 10, "TEXCOORD_0" : 11}, "indices" : 8, "material" : 2, "mode" : 4}]}, {"primitives" : [{"attributes" : {"POSITION" : 13, "NORMAL" : 14, "TEXCOORD_0" : 15}, "indices" : 12, "material" : 3, "mode" : 4}]}, {"primitives" : [{"attributes" : {"POSITION" : 17, "NORMAL" : 18, "TEXCOORD_0" : 19}, "indices" : 16, "material" : 4, "mode" : 4}]}, {"primitives" : [{"attributes" : {"POSITION" : 21, "NORMAL" : 22, "TEXCOORD_0" : 23}, "indices" : 20, "mode" : 4}]}, {"primitives" : [{"attributes" : {"POSITION" : 25, "NORMAL" : 26, "TEXCOORD_0" : 27}, "indices" : 24, "mode" : 4}]}, {"primitives" : [{"attributes" : {"POSITION" : 29, "NORMAL" : 30, "TEXCOORD_0" : 31}, "indices" : 28, "mode" : 4}]}, {"primitives" : [{"attributes" : {"POSITION" : 33, "NORMAL" : 34, "TEXCOORD_0" : 35}, "indices" : 32, "mode" : 4}]}], "nodes" : [{"matrix" : [1, 0, 0, 0, 0, 0.5268795490264893, 0, 0, 0, 0, 3.0507752895355225, 0, -0.08597464859485626, 0.11801674962043762, 0.04916960373520851, 1], "mesh" : 0, "name" : "Cube"}, {"matrix" : [1.4275282978860506E-07, -0.7038541195276314, 0, 0, 0.2417540169459815, 4.903156644868714E-08, 0, 0, 0, 0, 0.7038541436195374, 0, 0.875070333480835, -0.37193137407302856, 2.081089735031128, 1], "mesh" : 1, "name" : "Cylinder"}, {"matrix" : [1.4275282978860506E-07, -0.7038541195276314, 0, 0, 0.2417540169459815, 4.903156644868714E-08, 0, 0, 0, 0, 0.7038541436195374, 0, 0.875070333480835, -0.37193137407302856, -2.8311874866485596, 1], "mesh" : 2, "name" : "Cylinder.001"}, {"matrix" : [3.7416109889213124E-08, -0.7038542248677994, -2.0784633600464412E-10, 0, -0.2417362925270841, -6.866049252005625E-08, -0.0029303717791386505, 0, 0.008531622762203444, 1.6461967013827037E-09, -0.7038025374611856, 0, -1.0638134479522705, -0.37193137407302856, 2.081089735031128, 1], "mesh" : 3, "name" : "Cylinder.002"}, {"matrix" : [3.7416109889213124E-08, -0.7038542248677994, -2.0784633600464412E-10, 0, -0.2417362925270841, -6.866049252005625E-08, -0.0029303717791386505, 0, 0.008531622762203444, 1.6461967013827037E-09, -0.7038025374611856, 0, -1.0638134479522705, -0.37193137407302856, -2.7404563426971436, 1], "mesh" : 4, "name" : "Cylinder.003"}, {"matrix" : [-0.19892649352550507, 0, 0, 0, 0, -0.12947894632816315, 0, 0, 0, 0, 0.18053969740867615, 0, -0.5005273818969727, 0.2920636236667633, 3.1379034519195557, 1], "mesh" : 5, "name" : "Cube.001"}, {"matrix" : [-0.19892649352550507, 0, 0, 0, 0, -0.12947894632816315, 0, 0, 0, 0, 0.18053969740867615, 0, 0.49491363763809204, 0.2920636236667633, 3.1379034519195557, 1], "mesh" : 6, "name" : "Cube.002"}, {"matrix" : [-0.19892649352550507, 0, 0, 0, 0, -0.12947894632816315, 0, 0, 0, 0, 0.18053969740867615, 0, -0.5005273818969727, 0.2920636236667633, -3.871119737625122, 1], "mesh" : 7, "name" : "Cube.003"}, {"matrix" : [-0.19892649352550507, 0, 0, 0, 0, -0.12947894632816315, 0, 0, 0, 0, 0.18053969740867615, 0, 0.49491363763809204, 0.2920636236667633, -3.871119737625122, 1], "mesh" : 8, "name" : "Cube.004"}], "scene" : 0, "scenes" : [{"nodes" : [0, 1, 2, 3, 4, 5, 6, 7, 8]}]}